<svg xmlns="http://www.w3.org/2000/svg" width="1200" height="675" viewBox="0 0 1200 675">
<rect width="1200" height="675" fill="#f6f8fb"/>
<text x="52" y="54" font-family="Arial" font-size="28" font-weight="700" fill="#172033">AI Governance — Executive Overview</text>
<text x="52" y="80" font-family="Arial" font-size="14" fill="#64748b">Static portfolio preview • corrected Power BI results</text>
<g font-family="Arial">
  <g transform="translate(52,112)"><rect width="164" height="94" rx="10" fill="white" stroke="#dbe3ee"/><text x="18" y="30" font-size="13" fill="#64748b">Total AI Systems</text><text x="18" y="68" font-size="32" font-weight="700" fill="#172033">50</text></g>
  <g transform="translate(232,112)"><rect width="164" height="94" rx="10" fill="white" stroke="#dbe3ee"/><text x="18" y="30" font-size="13" fill="#64748b">High Risk</text><text x="18" y="68" font-size="32" font-weight="700" fill="#172033">26</text></g>
  <g transform="translate(412,112)"><rect width="164" height="94" rx="10" fill="white" stroke="#dbe3ee"/><text x="18" y="30" font-size="13" fill="#64748b">Critical</text><text x="18" y="68" font-size="32" font-weight="700" fill="#172033">5</text></g>
  <g transform="translate(592,112)"><rect width="164" height="94" rx="10" fill="white" stroke="#dbe3ee"/><text x="18" y="30" font-size="13" fill="#64748b">Control Coverage</text><text x="18" y="68" font-size="32" font-weight="700" fill="#172033">74%</text></g>
  <g transform="translate(772,112)"><rect width="164" height="94" rx="10" fill="white" stroke="#dbe3ee"/><text x="18" y="30" font-size="13" fill="#64748b">Open Incidents</text><text x="18" y="68" font-size="32" font-weight="700" fill="#172033">8</text></g>
  <g transform="translate(952,112)"><rect width="196" height="94" rx="10" fill="white" stroke="#dbe3ee"/><text x="18" y="30" font-size="13" fill="#64748b">High-Severity Incidents</text><text x="18" y="68" font-size="32" font-weight="700" fill="#172033">20</text></g>

  <g transform="translate(52,232)"><rect width="350" height="384" rx="10" fill="white" stroke="#dbe3ee"/><text x="20" y="34" font-size="16" font-weight="700" fill="#172033">AI Systems by Risk Level</text>
    <line x1="58" y1="328" x2="318" y2="328" stroke="#cbd5e1"/><line x1="58" y1="70" x2="58" y2="328" stroke="#cbd5e1"/>
    <rect x="82" y="91" width="38" height="237" rx="3" fill="#2563eb"/><rect x="148" y="173" width="38" height="155" rx="3" fill="#60a5fa"/><rect x="214" y="282" width="38" height="46" rx="3" fill="#f59e0b"/><rect x="280" y="310" width="38" height="18" rx="3" fill="#94a3b8"/>
    <text x="82" y="350" font-size="12" fill="#475569">High</text><text x="138" y="350" font-size="12" fill="#475569">Moderate</text><text x="205" y="350" font-size="12" fill="#475569">Critical</text><text x="282" y="350" font-size="12" fill="#475569">Low</text>
    <text x="92" y="82" font-size="13" font-weight="700" fill="#172033">26</text><text x="158" y="164" font-size="13" font-weight="700" fill="#172033">17</text><text x="224" y="273" font-size="13" font-weight="700" fill="#172033">5</text><text x="290" y="301" font-size="13" font-weight="700" fill="#172033">2</text>
  </g>

  <g transform="translate(422,232)"><rect width="726" height="180" rx="10" fill="white" stroke="#dbe3ee"/><text x="20" y="34" font-size="16" font-weight="700" fill="#172033">Highest Governance Priority Scores</text>
    <text x="20" y="68" font-size="13" fill="#334155">Customer Credit Risk Model</text><rect x="238" y="55" width="420" height="16" rx="8" fill="#e2e8f0"/><rect x="238" y="55" width="420" height="16" rx="8" fill="#2563eb"/><text x="670" y="68" font-size="13" fill="#334155">7.50</text>
    <text x="20" y="96" font-size="13" fill="#334155">Employee Attrition Predictor</text><rect x="238" y="83" width="420" height="16" rx="8" fill="#e2e8f0"/><rect x="238" y="83" width="367" height="16" rx="8" fill="#3b82f6"/><text x="617" y="96" font-size="13" fill="#334155">6.55</text>
    <text x="20" y="124" font-size="13" fill="#334155">Resume Screening Assistant</text><rect x="238" y="111" width="420" height="16" rx="8" fill="#e2e8f0"/><rect x="238" y="111" width="347" height="16" rx="8" fill="#60a5fa"/><text x="597" y="124" font-size="13" fill="#334155">6.20</text>
    <text x="20" y="152" font-size="13" fill="#334155">Internal Knowledge Assistant</text><rect x="238" y="139" width="420" height="16" rx="8" fill="#e2e8f0"/><rect x="238" y="139" width="342" height="16" rx="8" fill="#60a5fa"/><text x="592" y="152" font-size="13" fill="#334155">6.10</text>
  </g>

  <g transform="translate(422,432)"><rect width="352" height="184" rx="10" fill="white" stroke="#dbe3ee"/><text x="20" y="34" font-size="16" font-weight="700" fill="#172033">Control Status</text><circle cx="94" cy="108" r="52" fill="none" stroke="#e2e8f0" stroke-width="20"/><path d="M94 56 A52 52 0 1 1 45 91" fill="none" stroke="#2563eb" stroke-width="20"/><text x="75" y="113" font-size="20" font-weight="700" fill="#172033">74%</text><text x="170" y="88" font-size="13" fill="#334155">111 Effective</text><text x="170" y="112" font-size="13" fill="#334155">34 Partial</text><text x="170" y="136" font-size="13" fill="#334155">5 Missing</text></g>
  <g transform="translate(794,432)"><rect width="354" height="184" rx="10" fill="white" stroke="#dbe3ee"/><text x="20" y="34" font-size="16" font-weight="700" fill="#172033">Incident Severity</text><rect x="54" y="74" width="54" height="76" rx="4" fill="#2563eb"/><rect x="144" y="78" width="54" height="72" rx="4" fill="#60a5fa"/><rect x="234" y="146" width="54" height="4" rx="2" fill="#94a3b8"/><text x="66" y="168" font-size="12" fill="#475569">High</text><text x="146" y="168" font-size="12" fill="#475569">Medium</text><text x="245" y="168" font-size="12" fill="#475569">Low</text><text x="72" y="66" font-size="13" font-weight="700" fill="#172033">20</text><text x="160" y="70" font-size="13" font-weight="700" fill="#172033">19</text><text x="255" y="138" font-size="13" font-weight="700" fill="#172033">1</text></g>
</g>
</svg>